<svg xmlns="http://www.w3.org/2000/svg" width="640" height="640" viewBox="0 0 640 640">
  <!-- Fallback album art for local files. Icon: SVG Repo (music-album). -->
  <rect width="640" height="640" rx="56" fill="#191724"/>
  <g transform="translate(140,140) scale(0.703125)" fill="#e0def4">
<g>
	<g>
		<g>
			<path d="M490.667,128V85.333c0-11.782-9.551-21.333-21.333-21.333H448V21.333C448,9.551,438.449,0,426.667,0H85.333
				C73.551,0,64,9.551,64,21.333V64H42.667c-11.782,0-21.333,9.551-21.333,21.333V128C9.551,128,0,137.551,0,149.333v341.333
				C0,502.449,9.551,512,21.333,512h469.333c11.782,0,21.333-9.551,21.333-21.333V149.333C512,137.551,502.449,128,490.667,128z
				 M106.667,42.667h298.667V64H106.667V42.667z M64,106.667h21.333h341.333H448V128H64V106.667z M469.333,469.333H42.667V170.667
				h426.667V469.333z"/>
			<path d="M169.611,448h7.125c34.759,0,57.92-23.141,57.92-57.899v-48.599c0-0.057,0.009-0.112,0.009-0.169v-66.501l128-16V320
				h-27.422c-34.836,0-57.92,29.65-57.92,65.045c0,34.774,28.191,62.955,62.955,62.955h7.125c34.759,0,57.92-23.141,57.92-57.899
				v-48.599c0-0.057,0.009-0.112,0.009-0.169V234.667c0-0.029-0.004-0.056-0.004-0.084c-0.003-0.638-0.036-1.28-0.097-1.926
				c-0.01-0.109-0.021-0.219-0.033-0.328c-0.011-0.103-0.018-0.205-0.031-0.308c-0.061-0.491-0.145-0.973-0.238-1.451
				c-0.025-0.131-0.051-0.261-0.079-0.391c-0.122-0.572-0.267-1.133-0.433-1.685c-0.034-0.112-0.069-0.224-0.104-0.336
				c-0.182-0.569-0.386-1.127-0.612-1.672c-0.034-0.083-0.069-0.165-0.105-0.247c-0.244-0.567-0.51-1.12-0.799-1.659
				c-0.03-0.057-0.061-0.113-0.092-0.169c-0.304-0.553-0.63-1.091-0.979-1.612c-0.029-0.043-0.058-0.085-0.086-0.127
				c-0.356-0.523-0.734-1.029-1.134-1.517c-0.035-0.042-0.07-0.084-0.105-0.126c-0.398-0.478-0.816-0.938-1.253-1.379
				c-0.049-0.05-0.099-0.098-0.149-0.148c-0.43-0.424-0.876-0.831-1.339-1.217c-0.07-0.058-0.14-0.115-0.21-0.172
				c-0.454-0.369-0.922-0.719-1.404-1.05c-0.089-0.061-0.18-0.121-0.27-0.181c-0.477-0.316-0.966-0.614-1.468-0.892
				c-0.102-0.057-0.206-0.111-0.309-0.166c-0.507-0.269-1.024-0.519-1.553-0.748c-0.102-0.044-0.203-0.086-0.306-0.128
				c-0.547-0.226-1.104-0.431-1.671-0.611c-0.087-0.028-0.174-0.054-0.261-0.081c-0.595-0.181-1.2-0.337-1.814-0.466
				c-0.064-0.013-0.127-0.026-0.191-0.039c-0.642-0.129-1.292-0.228-1.951-0.298c-0.046-0.005-0.093-0.01-0.139-0.014
				c-0.667-0.066-1.341-0.1-2.022-0.102c-0.031,0-0.061-0.005-0.091-0.005c-0.029,0-0.056,0.004-0.084,0.004
				c-0.638,0.003-1.28,0.036-1.926,0.097c-0.11,0.01-0.219,0.021-0.328,0.033c-0.103,0.011-0.205,0.018-0.308,0.031l-170.667,21.333
				c-0.491,0.061-0.973,0.145-1.451,0.238c-0.131,0.025-0.261,0.051-0.391,0.079c-0.572,0.122-1.133,0.267-1.685,0.433
				c-0.112,0.034-0.224,0.069-0.336,0.104c-0.569,0.182-1.126,0.386-1.672,0.612c-0.083,0.034-0.165,0.069-0.248,0.105
				c-0.567,0.244-1.121,0.51-1.659,0.799c-0.056,0.03-0.111,0.061-0.167,0.091c-0.553,0.304-1.091,0.63-1.612,0.979
				c-0.043,0.029-0.086,0.059-0.129,0.088c-0.523,0.357-1.029,0.734-1.516,1.134c-0.042,0.034-0.082,0.069-0.124,0.103
				c-0.479,0.399-0.94,0.817-1.381,1.255c-0.049,0.049-0.098,0.099-0.146,0.148c-0.425,0.43-0.831,0.876-1.218,1.34
				c-0.058,0.069-0.114,0.14-0.171,0.21c-0.368,0.453-0.719,0.921-1.049,1.403c-0.062,0.09-0.122,0.182-0.183,0.273
				c-0.316,0.477-0.614,0.966-0.891,1.467c-0.056,0.102-0.111,0.204-0.165,0.307c-0.27,0.507-0.52,1.025-0.749,1.554
				c-0.044,0.101-0.086,0.203-0.128,0.305c-0.227,0.547-0.431,1.104-0.612,1.671c-0.028,0.086-0.054,0.173-0.081,0.26
				c-0.182,0.596-0.337,1.201-0.467,1.815c-0.013,0.064-0.026,0.127-0.039,0.191c-0.129,0.642-0.228,1.293-0.298,1.952
				c-0.005,0.046-0.01,0.092-0.014,0.138c-0.066,0.667-0.1,1.342-0.102,2.023c0,0.031-0.005,0.061-0.005,0.091v64h-27.422
				c-34.836,0-57.92,29.65-57.92,65.045C106.656,419.819,134.847,448,169.611,448z M362.656,390.101
				c0,11.185-4.05,15.232-15.253,15.232h-7.125c-11.203,0-20.288-9.082-20.288-20.288c0-13.838,6.649-22.379,15.253-22.379h27.413
				V390.101z M164.576,362.667h27.413v27.435c0,11.185-4.05,15.232-15.253,15.232h-7.125c-11.203,0-20.288-9.082-20.288-20.288
				C149.323,371.207,155.972,362.667,164.576,362.667z"/>
		</g>
	</g>
</g>
  </g>
</svg>
